PathFileType	4	(X/Y/Z)	C249e_D251_DD_1_S001_1.trc
DataRate	CameraRate	NumFrames	NumMarkers	Units	OrigDataRate	OrigDataStartFrame	OrigNumFrames
50.0	50.0	5	54	mm	50.0	197	314
Frame#	Time		Q_WaistRFront		Q_WaistLFront		Q_WaistL		Q_WaistR		Q_WaistBack		Q_LThighFrontLow		Q_RThighFrontLow		Q_RKneeIn		Q_RKneeOut		Q_RShinFrontHigh		Q_LKneeIn		Q_LKneeOut		Q_LShinFrontHigh		Q_RForefoot5		Q_RForefoot2		Q_RHeelBack		Q_RAnkleOut		Q_LForefoot5		Q_LForefoot2		Q_LHeelBack		Q_LAnkleOut		Q_SpineThoracic2		Q_Chest		Q_SpineThoracic12		Q_HeadL		Q_HeadR		Q_HeadFront		Q_LShoulderTop		Q_LArm		Q_LElbowOut		Q_LElbowIn		Q_LWristOut		Q_LWristIn		Q_LHand2		Q_RShoulderTop		Q_RArm		Q_RElbowOut		Q_RElbowIn		Q_RWristOut		Q_RWristIn		Q_RHand2		RHipAngles		LHipAngles		RKneeAngles		LKneeAngles		RAnkleAngles		LAnkleAngles		RShoulderAngles		LShoulderAngles		RElbowAngles		LElbowAngles		RWristAngles		LWristAngles		Neck
			X1	Y1	Z1	X2	Y2	Z2	X3	Y3	Z3	X4	Y4	Z4	X5	Y5	Z5	X6	Y6	Z6	X7	Y7	Z7	X8	Y8	Z8	X9	Y9	Z9	X10	Y10	Z10	X11	Y11	Z11	X12	Y12	Z12	X13	Y13	Z13	X14	Y14	Z14	X15	Y15	Z15	X16	Y16	Z16	X17	Y17	Z17	X18	Y18	Z18	X19	Y19	Z19	X20	Y20	Z20	X21	Y21	Z21	X22	Y22	Z22	X23	Y23	Z23	X24	Y24	Z24	X25	Y25	Z25	X26	Y26	Z26	X27	Y27	Z27	X28	Y28	Z28	X29	Y29	Z29	X30	Y30	Z30	X31	Y31	Z31	X32	Y32	Z32	X33	Y33	Z33	X34	Y34	Z34	X35	Y35	Z35	X36	Y36	Z36	X37	Y37	Z37	X38	Y38	Z38	X39	Y39	Z39	X40	Y40	Z40	X41	Y41	Z41	X42	Y42	Z42	X43	Y43	Z43	X44	Y44	Z44	X45	Y45	Z45	X46	Y46	Z46	X47	Y47	Z47	X48	Y48	Z48	X49	Y49	Z49	X50	Y50	Z50	X51	Y51	Z51	X52	Y52	Z52	X53	Y53	Z53	X54	Y54	Z54

197	3.92000	95.00649	838.38794	204.06671	-161.37511	845.26251	206.96387	-160.28146	858.56696	272.17474	96.10013	851.69238	269.27762	-32.09067	855.12970	270.72617	-91.78796	480.16318	260.54236	27.16037	475.69235	242.69711	-29.71039	423.57062	258.48611	110.15899	420.91425	253.05492	36.44758	221.28308	256.79614	-34.13909	429.13113	278.45642	-174.03804	425.51175	274.56061	-98.52174	226.86702	262.83328	112.87589	48.13953	199.26837	62.98803	49.40941	196.17184	53.69244	29.66301	337.83401	105.88018	67.21478	326.25690	-171.66649	43.21781	194.84007	-121.95602	47.46393	191.54781	-111.15703	31.13042	333.53757	-165.56383	65.19537	321.40479	-30.81418	1325.27710	399.20175	-28.01334	782.27649	70.85852	-30.81418	1325.27710	399.20175	-93.03829	1494.19214	231.00002	46.31981	1489.47144	243.53131	-17.72663	1477.08130	169.06966	-165.47533	1374.79346	281.13773	-315.26120	1388.56775	276.53525	-369.58163	1479.36572	269.32297	-406.15964	1409.87012	207.41637	-587.71667	1552.30664	210.50256	-561.52417	1572.10974	172.79590	-653.79028	1630.42236	194.14211	106.15254	1371.79199	284.92297	250.37123	1390.80591	291.94528	305.31284	1480.08374	275.88696	352.56821	1400.69702	237.61584	530.69928	1547.30750	243.55991	511.96362	1557.91052	198.43176	607.11139	1608.86267	227.91325	-12.62707	-4.25223	-0.98229	-9.67849	-8.06833	-1.92742	-7.10818	4.69419	0.09684	0.12376	5.12604	-0.19483	-14.03248	5.97747	0.43935	-8.49498	5.94090	-2.74473	-14.58980	8.29162	-29.95860	15.19107	-23.34065	-31.55932	-6.70838	-23.34065	71.31499	-8.44097	-0.00000	71.31499	-15.53570	-9.65258	71.31499	-9.48124	-8.81323	-0.00000	-31.55541	-3.66182	0.44595
198	3.94000	94.96724	837.64563	204.22461	-161.41287	844.72839	206.72565	-160.40523	858.18622	271.90643	95.97488	851.10339	269.40543	-32.21518	854.64484	270.65591	-91.88239	479.75519	260.68951	26.66146	475.16925	242.86923	-30.31090	423.04178	258.56177	109.56752	420.36337	253.37950	35.81503	220.74345	256.90845	-34.31673	428.74103	278.88062	-174.19417	425.08246	274.30737	-98.56651	226.45828	262.95441	112.41049	48.07156	199.41647	62.52657	49.23543	196.21655	52.97332	29.04537	337.79901	105.09863	66.75192	326.44586	-171.36288	43.19073	194.54491	-121.63651	47.43410	191.49837	-111.50695	30.67199	333.48752	-165.84814	64.78699	321.20221	-30.80532	1325.07617	398.00732	-27.90199	781.28888	70.96973	-30.80532	1325.07617	398.00732	-93.74172	1493.20996	229.58049	45.67646	1489.34448	241.73068	-18.50317	1476.40771	167.47697	-165.86584	1373.54150	280.41940	-317.89462	1381.36963	276.25742	-375.80527	1469.99353	270.00171	-409.30942	1399.91272	207.02431	-596.43018	1534.93103	211.08751	-570.88995	1556.25867	173.76686	-664.57239	1612.61096	195.30637	106.66561	1370.54419	284.78925	253.77072	1383.16980	291.85654	312.37894	1470.25024	276.72141	355.81235	1389.54688	236.71510	540.14233	1528.25769	243.22453	521.46246	1540.39465	198.46117	619.02112	1585.33118	225.90562	-12.76681	-4.27643	-0.94263	-9.82045	-8.11671	-2.10693	-7.09230	4.75946	0.07160	0.12313	5.11795	-0.18452	-14.18995	5.97397	0.58907	-8.67204	5.94120	-2.70887	-13.98316	9.13122	-27.65323	14.39239	-23.93548	-29.45887	-6.95644	-23.93548	71.50349	-8.34986	-0.00000	71.50349	-15.46226	-7.36774	71.50349	-8.54285	-10.15137	-0.00000	-31.52791	-3.27106	0.37222
199	3.96000	94.27780	837.99792	203.08739	-162.09982	844.78064	206.50557	-160.87354	858.29175	271.67160	95.50408	851.50897	268.25345	-32.68473	854.90033	269.96252	-91.90487	479.95148	260.05167	26.81184	475.43613	242.36313	-29.96350	423.33633	258.64041	109.86705	420.68607	252.28506	36.19671	221.05223	256.64569	-34.25311	428.99005	277.92407	-174.14290	425.16235	273.90027	-98.32001	226.63065	262.23660	112.33347	48.23563	198.70421	62.42363	49.37714	195.92865	54.08800	29.45681	337.62622	106.10147	67.15835	325.75534	-171.32463	43.34693	194.16075	-121.60160	47.45921	190.88832	-110.88303	30.82624	332.84943	-165.19072	65.06728	320.76837	-31.52403	1324.67542	397.39240	-28.79502	781.07544	70.04190	-31.52403	1324.67542	397.39240	-93.68569	1493.38354	229.30469	45.65406	1488.70679	242.05460	-18.25949	1476.52515	167.44452	-167.34203	1371.66357	280.19577	-321.00485	1373.60107	275.59235	-382.26242	1460.01147	270.32584	-412.38071	1389.86084	205.73663	-604.63574	1517.44873	210.20744	-579.56689	1540.43164	173.55585	-674.63599	1595.55176	198.44278	106.32426	1369.28833	285.14322	255.97401	1375.60193	291.71408	317.83136	1460.65515	278.05368	357.32751	1379.45105	235.08908	547.23761	1510.37048	242.49741	528.39282	1524.53455	198.40367	627.98914	1565.03699	228.26099	-12.74988	-4.22132	-0.98436	-9.93023	-8.11625	-2.24109	-7.11299	4.67432	-0.16712	0.08713	5.11224	-0.00722	-14.14034	5.96619	0.59101	-8.62130	5.94731	-2.49124	-13.52325	10.64199	-25.51771	13.86875	-24.83886	-27.43742	-7.14162	-24.83886	73.11130	-8.54416	-0.00000	73.11130	-16.61425	-7.75356	73.11130	-8.80887	-11.89108	-0.00000	-31.27969	-3.66631	0.42829
200	3.98000	94.02386	838.26636	201.80937	-162.34460	844.99707	205.94496	-160.93663	858.59949	271.08829	95.43183	851.86877	266.95276	-32.75240	855.23413	269.02051	-92.16778	480.21878	260.14728	26.94045	475.72852	241.74525	-29.77484	423.70944	257.97397	110.06268	420.95444	251.81866	36.25208	221.37791	256.42392	-34.56265	429.29160	278.25958	-174.44534	425.48257	273.97882	-98.64212	226.90665	262.95764	112.39507	48.40313	198.90999	62.48952	49.53061	196.05226	53.93071	29.91684	337.77930	105.95718	67.60084	325.90955	-171.66820	43.57422	195.23141	-121.92617	47.50821	192.02908	-111.49892	31.27858	334.05856	-165.67029	65.66549	321.78134	-31.44449	1324.50623	396.30356	-29.27221	780.93286	68.90454	-31.44449	1324.50623	396.30356	-93.74306	1493.13367	228.43526	45.56421	1488.78796	241.64865	-18.05099	1476.86304	166.74269	-167.90833	1370.33740	279.81219	-322.94711	1366.96472	275.31934	-387.14859	1451.26941	271.09219	-414.49185	1381.16077	205.23531	-611.11249	1501.87000	210.73595	-586.69238	1526.30225	174.58730	-684.07104	1577.53064	200.81673	105.83116	1370.07446	284.63159	259.03305	1369.13916	290.69180	324.41354	1451.86902	279.37274	359.33017	1370.95081	232.11751	555.13330	1492.76868	241.17990	536.11884	1509.69519	198.14572	638.88269	1542.35461	231.82538	-12.75104	-4.18906	-0.92776	-9.88800	-8.05578	-2.40208	-7.11247	4.57271	0.00244	0.05892	5.08543	-0.09602	-14.11857	5.97172	0.63886	-8.60108	5.94075	-2.30893	-12.88913	13.06201	-23.29394	13.26447	-25.57091	-25.63016	-6.95159	-25.57091	74.19182	-8.31554	-0.00000	74.19182	-18.97459	-9.33487	74.19182	-9.18880	-13.05247	-0.00000	-30.95648	-3.56725	0.43827
201	4.00000	93.56272	838.09479	201.44188	-162.80876	844.67761	205.62480	-161.39508	858.34900	270.75357	94.97639	851.76617	266.57068	-33.20935	855.05756	268.66214	-92.40043	479.99966	260.14658	26.72967	475.56451	241.67087	-29.97813	423.60352	257.80795	109.87104	420.77002	251.96140	35.92821	221.23349	256.16019	-34.80021	429.14337	278.40961	-174.67050	425.20001	273.85422	-98.65476	226.69763	262.97186	112.30889	48.63303	198.64926	62.40705	49.50555	195.64183	53.52165	29.65128	337.31525	105.38741	67.62109	325.65491	-171.51616	43.65787	195.08345	-121.76221	47.50126	191.95702	-111.56480	31.01722	333.97388	-165.65265	65.52869	321.67798	-32.21531	1323.83569	395.86224	-29.64590	780.31378	68.38074	-32.21531	1323.83569	395.86224	-94.01651	1492.91162	228.51335	45.24369	1488.02905	242.03226	-18.21901	1476.96790	166.86487	-168.89569	1368.96289	280.09146	-325.60696	1359.60083	275.17673	-393.02390	1441.39917	271.86398	-417.04831	1371.47925	204.52888	-618.25165	1484.37061	210.30878	-594.48602	1510.37488	174.82681	-694.98029	1554.64807	199.48718	105.49487	1368.75439	286.17447	261.43988	1359.84265	290.74963	330.33954	1440.00439	282.15170	360.01440	1360.46948	229.29715	561.55121	1472.48096	239.14537	542.13672	1492.73926	197.76083	646.58826	1520.21899	228.73984	-12.76391	-4.18925	-0.85209	-9.91283	-8.04986	-2.50106	-6.98671	4.50526	0.03829	0.09848	5.06349	-0.11443	-14.14869	5.97017	0.97630	-8.70553	5.95114	-2.13741	-12.50411	16.49297	-20.96646	12.67603	-26.45222	-23.61560	-7.23137	-26.45222	74.06452	-8.15534	-0.00000	74.06452	-18.05799	-8.27660	74.06452	-9.63873	-12.01343	-0.00000	-30.47972	-3.87779	0.37279
